<svg width="256" height="256" viewBox="0 0 256 256" fill="none" xmlns="http://www.w3.org/2000/svg">
  <g clip-path="url(#clip0_1_36)">
    <path d="M73.3269 48.0939L52.4971 68.9294H73.3269V48.0939Z" fill="#0191CD" />
    <path
      d="M76.7516 76.6436H47.0443V199.43H61.989V94.4498C61.9963 93.8366 62.1168 93.23 62.3445 92.6606L62.4014 92.5184C62.5095 92.2681 62.6347 92.0263 62.7797 91.8016C62.9895 91.0975 63.3763 90.4589 63.9033 89.947L77.2267 76.6208C77.0687 76.6355 76.9102 76.6431 76.7516 76.6436Z"
      fill="#51F9B3" />
    <path d="M95.9829 89.5943V68.7673L75.1616 89.5943H95.9829Z" fill="#21AC72" />
    <path
      d="M140.649 218.169C140.229 217.283 139.833 216.385 139.46 215.478L139.435 215.413C136.739 208.833 135.354 201.79 135.356 194.679C135.356 182.721 139.21 171.651 145.729 162.625L145.886 162.404C146.493 161.571 147.122 160.754 147.772 159.954L147.977 159.704C148.614 158.928 149.268 158.162 149.953 157.414C152.706 154.428 155.791 151.768 159.15 149.484C159.926 148.949 160.714 148.432 161.522 147.934H97.1748C92.2027 147.934 92.2112 140.22 97.1748 140.22H181.257C181.655 140.22 182.007 140.282 182.343 140.376C187.891 139.564 193.531 139.61 199.066 140.51V63.3173H103.697V93.0219C103.697 95.3856 101.769 97.3113 99.3991 97.3113H69.7031V220.1H141.585C141.514 219.961 141.451 219.819 141.38 219.679C141.129 219.18 140.885 218.676 140.649 218.169ZM97.1719 103.25H181.254C186.226 103.25 186.217 110.965 181.254 110.965H97.1719C92.1998 110.965 92.2084 103.25 97.1719 103.25ZM97.1719 121.737H181.254C186.226 121.737 186.217 129.454 181.254 129.454H97.1719C92.1998 129.454 92.2084 121.737 97.1719 121.737Z"
      fill="#52CC99" />
    <path
      d="M98.1874 56.3911C98.4036 56.2489 98.634 56.1294 98.8729 56.0213C98.9468 55.9872 99.0265 55.9616 99.1061 55.9332C99.3836 55.8349 99.6666 55.7532 99.9538 55.6885C100.241 55.6345 100.534 55.6004 100.836 55.6004H176.41V42.6468H81.0411V72.3484C81.0411 72.5077 81.0325 72.667 81.0155 72.8235L96.3669 57.4663C96.896 56.9543 97.5218 56.5902 98.1874 56.3911Z"
      fill="#51F9B3" />
    <path
      d="M97.1719 129.454H181.254C186.217 129.454 186.226 121.737 181.254 121.737H97.1719C92.2084 121.737 92.1998 129.454 97.1719 129.454ZM97.1719 110.965H181.254C186.217 110.965 186.226 103.25 181.254 103.25H97.1719C92.2084 103.25 92.1998 110.965 97.1719 110.965Z"
      fill="#767FAD" />
    <path
      d="M211.066 143.932C209.661 143.356 208.232 142.84 206.783 142.387V60.4501C206.783 57.7764 204.607 55.6004 201.933 55.6004H184.129V39.7824C184.129 37.1058 181.951 34.9298 179.277 34.9298H78.1796C77.1925 34.9298 76.2738 35.2313 75.5058 35.7404C74.8516 35.9396 74.2343 36.2894 73.7109 36.7986L41.2359 69.2821C40.7196 69.7884 40.3408 70.4179 40.1351 71.1111C39.626 71.8791 39.3273 72.795 39.3273 73.7792V202.297C39.3273 204.971 41.5033 207.147 44.1799 207.147H61.989V222.965C61.989 225.638 64.165 227.814 66.8388 227.814H146.512C159.821 245.239 183.068 253.477 204.587 247.666C228.474 241.217 244.756 219.184 245.117 194.682C244.779 172.567 231.663 152.408 211.066 143.932ZM81.0411 72.3484V42.6468H176.41V55.6004H100.838C99.899 55.6102 98.9813 55.8843 98.1902 56.3911C97.5275 56.5902 96.8988 56.9515 96.3726 57.4692L81.0212 72.8263C81.0325 72.667 81.0411 72.5077 81.0411 72.3484ZM95.9829 68.7673V89.5943H75.1616L95.9829 68.7673ZM73.3269 48.0939V68.9266H52.4999L73.3269 48.0939ZM63.9004 89.9442C63.3735 90.4561 62.9866 91.0946 62.7769 91.7988C62.6307 92.0266 62.5042 92.2664 62.3986 92.5156L62.3417 92.6578C62.2499 92.8898 62.1757 93.1285 62.1198 93.3717L62.08 93.5424C62.0231 93.8382 61.9861 94.1369 61.9861 94.4469V199.427H47.0414V76.6436H76.7516C76.9109 76.6436 77.0674 76.635 77.2238 76.618L63.9004 89.9442ZM69.706 220.1V97.3113H99.402C101.771 97.3113 103.7 95.3884 103.7 93.0219V63.3173H199.068V140.513C193.534 139.617 187.894 139.572 182.346 140.379C181.992 140.278 181.627 140.225 181.259 140.223H97.1776C92.214 140.223 92.2055 147.937 97.1776 147.937H161.525C160.72 148.434 159.929 148.952 159.152 149.487C155.795 151.771 152.709 154.432 149.956 157.417C149.276 158.162 148.617 158.925 147.979 159.707L147.775 159.957C147.126 160.758 146.497 161.574 145.889 162.406L145.732 162.628C138.979 171.951 135.348 183.171 135.359 194.682C135.353 202.809 137.161 210.833 140.652 218.172C140.888 218.678 141.13 219.182 141.386 219.682C141.457 219.822 141.52 219.964 141.591 220.103L69.706 220.1ZM210.443 237.318C190.959 246.699 166.886 240.907 153.381 224.142C153.046 223.722 152.717 223.296 152.397 222.865L151.606 221.739C150.253 219.809 149.045 217.782 147.991 215.674C141.278 202.024 141.579 185.552 148.841 172.095C152.077 166.195 156.529 161.051 161.903 157.002C171.223 150.081 182.739 146.78 194.31 147.715C194.662 147.746 195.012 147.775 195.362 147.814C196.756 147.957 198.142 148.169 199.515 148.449C200.323 148.611 201.131 148.784 201.927 148.989C222.805 154.331 237.076 173.338 237.4 194.685C237.133 212.867 226.916 229.387 210.443 237.318Z"
      fill="#767FAD" />
    <path
      d="M190 146.76C216.599 146.76 238.24 168.401 238.24 195C238.24 221.599 216.599 243.24 190 243.24C163.401 243.24 141.76 221.599 141.76 195C141.76 168.401 163.401 146.76 190 146.76ZM190 141.4C160.398 141.4 136.4 165.398 136.4 195C136.4 224.602 160.398 248.6 190 248.6C219.602 248.6 243.6 224.602 243.6 195C243.6 165.398 219.602 141.4 190 141.4Z"
      fill="#767FAD" />
    <path
      d="M193.725 184.958C193.394 184.835 193.169 184.517 193.152 184.15L193.04 181.6L191.793 153.158C191.747 152.2 190.959 151.45 190 151.45C189.041 151.45 188.254 152.2 188.207 153.161L186.96 181.6L186.848 184.147C186.831 184.517 186.606 184.835 186.275 184.957C186.174 184.994 186.079 185.041 185.98 185.081V186.96H194.02V185.095C193.92 185.053 193.828 184.997 193.725 184.958Z"
      fill="#52CC99" />
    <path
      d="M200.721 192.805C199.872 188.458 196.365 185.017 191.993 184.241C186.839 183.329 181.855 186.05 179.887 190.862C179.651 191.441 179.131 191.823 178.53 191.859L158.23 193.159C157.265 193.216 156.508 194.019 156.508 195.012C156.508 195.98 157.264 196.782 158.227 196.838L178.532 198.14C179.131 198.176 179.65 198.558 179.887 199.137C181.577 203.265 185.546 205.934 190 205.934C193.279 205.934 196.357 204.482 198.443 201.948C200.53 199.417 201.361 196.083 200.721 192.805ZM190 199.1C187.738 199.1 185.9 197.261 185.9 195C185.9 192.739 187.739 190.9 190 190.9C192.261 190.9 194.1 192.739 194.1 195C194.1 197.261 192.262 199.1 190 199.1Z"
      fill="#0191CD" />
  </g>
  <defs>
    <clipPath id="clip0_1_36">
      <rect width="256" height="256" fill="white" />
    </clipPath>
  </defs>
</svg>