<svg id="SvgjsSvg1032" width="256" height="256" xmlns="http://www.w3.org/2000/svg" version="1.1"
  xmlns:xlink="http://www.w3.org/1999/xlink" xmlns:svgjs="http://svgjs.com/svgjs">
  <defs id="SvgjsDefs1033"></defs>
  <g id="SvgjsG1034">
    <svg xmlns="http://www.w3.org/2000/svg" viewBox="0 0 90 90" width="256" height="256">
      <path fill="#0191cd" d="m25.779 16.908-7.323 7.325h7.323z" class="color3587d8 svgShape"></path>
      <path fill="#51f9b3"
        d="M26.983 26.945H16.539v43.167h5.254V33.205a1.75 1.75 0 0 1 .125-.629l.02-.05c.038-.088.082-.173.133-.252a1.51 1.51 0 0 1 .395-.652l4.684-4.685a1.867 1.867 0 0 1-.167.008z"
        class="color51dcf9 svgShape"></path>
      <path fill="#21ac72" d="M33.744 31.498v-7.322l-7.32 7.322z" class="color21ac85 svgShape"></path>
      <path fill="#52cc99"
        d="M49.447 76.7a19.403 19.403 0 0 1-.418-.946l-.009-.023a19.213 19.213 0 0 1-1.434-7.289c0-4.204 1.355-8.096 3.647-11.269l.055-.078a20.645 20.645 0 0 1 .663-.861l.072-.088c.224-.273.454-.542.695-.805a18.686 18.686 0 0 1 3.233-2.788c.273-.188.55-.37.834-.545H34.163c-1.748 0-1.745-2.712 0-2.712h29.56c.14 0 .264.022.382.055a19.254 19.254 0 0 1 5.879.047V22.26H36.456v10.443c0 .831-.678 1.508-1.511 1.508h-10.44v43.168h25.271c-.025-.049-.047-.099-.072-.148a18.497 18.497 0 0 1-.257-.531zM34.162 36.299h29.56c1.748 0 1.745 2.712 0 2.712h-29.56c-1.748 0-1.745-2.712 0-2.712zm0 6.499h29.56c1.748 0 1.745 2.713 0 2.713h-29.56c-1.748 0-1.745-2.713 0-2.713z"
        class="color2ed1a2 svgShape"></path>

      <path fill="#51f9b3"
        d="M34.519 19.825c.076-.05.157-.092.241-.13.026-.012.054-.021.082-.031a2.611 2.611 0 0 1 .298-.086c.101-.019.204-.031.31-.031h26.569v-4.554H28.491v10.442c0 .056-.003.112-.009.167l5.397-5.399c.186-.18.406-.308.64-.378z"
        class="color51dcf9 svgShape"></path>
      <path fill="#767fad"
        d="M34.162 45.511h29.56c1.745 0 1.748-2.713 0-2.713h-29.56c-1.745 0-1.748 2.713 0 2.713zm0-6.5h29.56c1.745 0 1.748-2.712 0-2.712h-29.56c-1.745 0-1.748 2.712 0 2.712z"
        class="color332195 svgShape"></path>
      <path fill="#767fad"
        d="M74.203 50.601a18.555 18.555 0 0 0-1.506-.543V21.252c0-.94-.765-1.705-1.705-1.705h-6.259v-5.561c0-.941-.766-1.706-1.706-1.706H27.485c-.347 0-.67.106-.94.285-.23.07-.447.193-.631.372l-11.417 11.42a1.497 1.497 0 0 0-.387.643c-.179.27-.284.592-.284.938V71.12c0 .94.765 1.705 1.706 1.705h6.261v5.561c0 .94.765 1.705 1.705 1.705h28.01c4.679 6.126 12.852 9.022 20.417 6.979 8.398-2.267 14.122-10.013 14.249-18.627-.119-7.775-4.73-14.862-11.971-17.842zM28.491 25.435V14.993h33.528v4.554H35.451a1.76 1.76 0 0 0-.931.278c-.233.07-.454.197-.639.379l-5.397 5.399c.004-.056.007-.112.007-.168zm5.253-1.259v7.322h-7.32l7.32-7.322zm-7.965-7.268v7.324h-7.322l7.322-7.324zm-3.314 14.713a1.51 1.51 0 0 0-.395.652 1.682 1.682 0 0 0-.133.252l-.02.05a1.742 1.742 0 0 0-.078.251l-.014.06c-.02.104-.033.209-.033.318v36.907h-5.254V26.945h10.445c.056 0 .111-.003.166-.009l-4.684 4.685zm2.041 45.758V34.211h10.44c.833 0 1.511-.676 1.511-1.508V22.26h33.528v27.139a19.351 19.351 0 0 0-5.879-.047 1.431 1.431 0 0 0-.382-.055h-29.56c-1.745 0-1.748 2.712 0 2.712h22.622c-.283.175-.561.357-.834.545a18.735 18.735 0 0 0-3.233 2.788 18.9 18.9 0 0 0-.695.805l-.072.088a21.765 21.765 0 0 0-.663.861l-.055.078a19.18 19.18 0 0 0-3.647 11.269 19.194 19.194 0 0 0 1.861 8.258c.083.178.168.355.258.531.025.049.047.099.072.148H24.506zm49.478 6.053c-6.85 3.298-15.313 1.262-20.061-4.632a16.27 16.27 0 0 1-.346-.449l-.278-.396a16.79 16.79 0 0 1-1.271-2.132c-2.36-4.799-2.254-10.59.299-15.321a16.693 16.693 0 0 1 4.592-5.306 16.836 16.836 0 0 1 11.393-3.265c.124.011.247.021.37.035a14.873 14.873 0 0 1 1.46.223c.284.057.568.118.848.19 7.34 1.878 12.357 8.56 12.471 16.065-.094 6.392-3.686 12.2-9.477 14.988z"
        class="color332195 svgShape"></path>
      <path fill="#767fad"
        d="m75.248 61.04-8.522 12.005-6.599-6.87c-1.212-1.261-3.128.659-1.918 1.918l7.712 8.028c.649.676 1.64.416 2.13-.275l9.539-13.438c1.013-1.426-1.338-2.782-2.342-1.368z"
        class="color332195 svgShape"></path>
    </svg>
  </g>
</svg>