<svg xmlns="http://www.w3.org/2000/svg" xmlns:xlink="http://www.w3.org/1999/xlink" viewBox="0 0 350 350" width="350" height="350" preserveAspectRatio="xMidYMid meet" style="width: 100%; height: 100%; transform: translate3d(0px, 0px, 0px); content-visibility: visible;"><defs><clipPath id="__lottie_element_11205"><rect width="350" height="350" x="0" y="0"></rect></clipPath></defs><g clip-path="url(#__lottie_element_11205)"><g transform="matrix(1,0,0,1,175,175.79942321777344)" opacity="1" style="display: block;"><g opacity="1" transform="matrix(1,0,0,1,0,0)"><path fill="rgb(247,215,138)" fill-opacity="1" d=" M99.83000183105469,-25.01300048828125 C99.83000183105469,-25.01300048828125 99.83000183105469,54.69499969482422 99.83000183105469,54.69499969482422 C99.83000183105469,54.69499969482422 0.16500000655651093,71.24800109863281 0.16500000655651093,71.24800109863281 C-6.603000164031982,72.40799713134766 -13.100000381469727,67.80599975585938 -14.222000122070312,60.959999084472656 C-14.569000244140625,58.987998962402344 -14.878999710083008,57.05400085449219 -15.189000129699707,55.082000732421875 C-16.426000595092773,47.81100082397461 -17.625,40.500999450683594 -18.823999404907227,33.22999954223633 C-20.524999618530273,22.90399932861328 -22.226999282836914,12.616999626159668 -23.968000411987305,2.3289999961853027 C-25.746999740600586,-8.42300033569336 -27.525999069213867,-19.135000228881836 -29.30500030517578,-29.88599967956543 C-30.736000061035156,-38.47200012207031 -32.16699981689453,-47.09700012207031 -33.597999572753906,-55.72100067138672 C-34.02299880981445,-58.46699905395508 -34.255001068115234,-61.48400115966797 -34.9900016784668,-64.19100189208984 C-36.382999420166016,-68.947998046875 -34.178001403808594,-73.97599792480469 -31.006000518798828,-77.53399658203125 C-25.513999938964844,-83.60600280761719 -17.70199966430664,-82.36799621582031 -10.508999824523926,-83.45099639892578 C-9.812000274658203,-83.56700134277344 -9.154999732971191,-83.6449966430664 -8.458999633789062,-83.76100158691406 C0.39800000190734863,-85.07599639892578 9.253999710083008,-86.46800231933594 18.111000061035156,-87.78299713134766 C37.215999603271484,-90.6449966430664 56.28200149536133,-93.54499816894531 75.38700103759766,-96.44599914550781 C78.09500122070312,-96.83200073242188 81.41999816894531,-97.4520034790039 83.77999877929688,-95.8270034790039 C86.0999984741211,-94.2020034790039 87.68599700927734,-91.302001953125 88.65299987792969,-88.75 C89.3489990234375,-86.8550033569336 89.85299682617188,-84.9209976196289 90.23899841308594,-82.91000366210938 C91.01200103759766,-79.27400207519531 91.43800354003906,-75.48400115966797 92.05599975585938,-71.88700103759766 C93.02300262451172,-66.00800323486328 93.98999786376953,-60.16899871826172 94.95700073242188,-54.32899856567383 C96.54299926757812,-44.65999984741211 98.16699981689453,-35.029998779296875 99.75199890136719,-25.361000061035156 C99.79100036621094,-25.2450008392334 99.83000183105469,-25.128999710083008 99.83000183105469,-25.01300048828125z"></path></g><g opacity="1" transform="matrix(1,0,0,1,0,0)"><path fill="rgb(234,196,113)" fill-opacity="1" d=" M99.83000183105469,-25.01300048828125 C99.83000183105469,-25.01300048828125 99.83000183105469,54.69499969482422 99.83000183105469,54.69499969482422 C99.83000183105469,54.69499969482422 0.16500000655651093,71.24800109863281 0.16500000655651093,71.24800109863281 C-6.603000164031982,72.40799713134766 -13.100000381469727,67.80599975585938 -14.222000122070312,60.959999084472656 C-14.569000244140625,58.987998962402344 -14.878999710083008,57.05400085449219 -15.189000129699707,55.082000732421875 C-16.426000595092773,47.81100082397461 -17.625,40.500999450683594 -18.823999404907227,33.22999954223633 C-20.524999618530273,22.90399932861328 -22.226999282836914,12.616999626159668 -23.968000411987305,2.3289999961853027 C-25.746999740600586,-8.42300033569336 -27.525999069213867,-19.135000228881836 -29.30500030517578,-29.88599967956543 C-30.736000061035156,-38.47200012207031 -32.16699981689453,-47.09700012207031 -33.597999572753906,-55.72100067138672 C-34.02299880981445,-58.46699905395508 -34.255001068115234,-61.48400115966797 -34.9900016784668,-64.19100189208984 C-36.382999420166016,-68.947998046875 -34.178001403808594,-73.97599792480469 -31.006000518798828,-77.53399658203125 C-25.513999938964844,-83.60600280761719 -17.70199966430664,-82.36799621582031 -10.508999824523926,-83.45099639892578 C-9.812000274658203,-83.56700134277344 -9.154999732971191,-83.6449966430664 -8.458999633789062,-83.76100158691406 C-8.458999633789062,-83.76100158691406 39.30400085449219,-83.76100158691406 39.30400085449219,-83.76100158691406 C55.625,-83.76100158691406 73.02899932861328,-83.68299865722656 90.23899841308594,-82.91000366210938 C91.01200103759766,-79.27400207519531 91.43800354003906,-75.48400115966797 92.05599975585938,-71.88700103759766 C93.02300262451172,-66.00800323486328 93.98999786376953,-60.16899871826172 94.95700073242188,-54.32899856567383 C96.54299926757812,-44.65999984741211 98.16699981689453,-35.029998779296875 99.75199890136719,-25.361000061035156 C99.79100036621094,-25.2450008392334 99.83000183105469,-25.128999710083008 99.83000183105469,-25.01300048828125z"></path></g><g opacity="1" transform="matrix(1,0,0,1,0,0)"><path fill="rgb(254,238,183)" fill-opacity="1" d=" M99.28900146484375,73.56800079345703 C98.70899963378906,74.18699645996094 97.77999877929688,74.34200286865234 96.96800231933594,74.49700164794922 C92.52100372314453,75.15499877929688 88.18900299072266,75.2699966430664 83.74199676513672,75.2699966430664 C83.74199676513672,75.2699966430664 -23.69700050354004,75.2699966430664 -23.69700050354004,75.2699966430664 C-30.503999710083008,75.15399932861328 -35.994998931884766,69.58499908447266 -35.994998931884766,62.73899841308594 C-35.994998931884766,62.73899841308594 -35.994998931884766,-53.90399932861328 -35.994998931884766,-53.90399932861328 C-35.994998931884766,-59.82099914550781 -37.000999450683594,-67.36299896240234 -35.49300003051758,-73.125 C-34.9900016784668,-74.98100280761719 -34.099998474121094,-76.76000213623047 -32.63100051879883,-77.99800109863281 C-29.149999618530273,-80.86000061035156 -24.43199920654297,-79.89299774169922 -20.33300018310547,-79.89299774169922 C-20.33300018310547,-79.89299774169922 27.315000534057617,-79.89299774169922 27.315000534057617,-79.89299774169922 C49.12799835205078,-79.89299774169922 70.66999816894531,-80.00900268554688 92.44300079345703,-78.96499633789062 C94.06700134277344,-78.88800048828125 95.76899719238281,-78.80999755859375 97.12300109863281,-77.88200378417969 C99.01799774169922,-76.52799987792969 99.55899810791016,-73.93699645996094 99.44400024414062,-71.61699676513672 C99.36699676513672,-70.18599700927734 99.3280029296875,-68.75499725341797 99.3280029296875,-67.3239974975586 C99.13400268554688,-57.34600067138672 99.83000183105469,-47.058998107910156 99.83000183105469,-36.9640007019043 C99.83000183105469,-36.9640007019043 99.83000183105469,36.402000427246094 99.83000183105469,36.402000427246094 C99.83000183105469,47.50199890136719 100.10099792480469,58.48500061035156 99.94599914550781,69.62300109863281 C99.90699768066406,70.93800354003906 100.33300018310547,72.52400207519531 99.28900146484375,73.56800079345703z"></path></g><g opacity="0.37" transform="matrix(1,0,0,1,0,0)"><path fill="rgb(255,255,255)" fill-opacity="1" d=" M76.18000030517578,37.11000061035156 C80.94200134277344,35.880001068115234 86.3550033569336,38.47200012207031 88.53700256347656,42.880001068115234 C90.71900177001953,47.28799819946289 89.5770034790039,53.047000885009766 85.99700164794922,56.41899871826172 C82.74400329589844,59.483001708984375 77.62999725341797,60.4739990234375 73.54900360107422,58.65599822998047 C64.10700225830078,54.44900131225586 66.76200103759766,39.542999267578125 76.18000030517578,37.11000061035156z"></path></g><g opacity="0.37" transform="matrix(1,0,0,1,0,0)"><path fill="rgb(255,255,255)" fill-opacity="1" d=" M84.37899780273438,23.910999298095703 C86.52200317382812,23.35700035095215 88.95700073242188,24.523000717163086 89.93900299072266,26.506999969482422 C90.9209976196289,28.490999221801758 90.40699768066406,31.082000732421875 88.7959976196289,32.599998474121094 C87.33200073242188,33.979000091552734 85.03199768066406,34.42499923706055 83.19499969482422,33.606998443603516 C78.94599914550781,31.714000701904297 80.14099884033203,25.006000518798828 84.37899780273438,23.910999298095703z"></path></g></g><g transform="matrix(1,0,0,1,175,175.79942321777344)" opacity="1" style="display: block;"><g opacity="1" transform="matrix(1,0,0,1,0,0)"><g opacity="1" transform="matrix(1,0,0,1,0,-3.5390377044677734)"><path fill="rgb(246,243,254)" fill-opacity="1" d=" M12.46399974822998,-31.219999313354492 C12.46399974822998,-24.726999282836914 7.066999912261963,-19.46299934387207 0.4090000092983246,-19.46299934387207 C-6.249000072479248,-19.46299934387207 -11.647000312805176,-24.726999282836914 -11.647000312805176,-31.219999313354492 C-11.647000312805176,-37.7130012512207 -6.249000072479248,-42.97800064086914 0.4090000092983246,-42.97800064086914 C7.066999912261963,-42.97800064086914 12.46399974822998,-37.7130012512207 12.46399974822998,-31.219999313354492z"></path></g><g opacity="1" transform="matrix(1,0,0,1,0,0)"><path fill="rgb(246,243,254)" fill-opacity="1" d=" M20.868000030517578,-3.6449999809265137 C20.868000030517578,-3.6449999809265137 20.868000030517578,-3.364000082015991 20.868000030517578,-3.364000082015991 C20.368000030517578,-3.0820000171661377 19.83799934387207,-2.864000082015991 19.274999618530273,-2.739000082015991 C18.93199920654297,-2.6760001182556152 18.58799934387207,-2.6449999809265137 18.21299934387207,-2.6449999809265137 C18.21299934387207,-2.6449999809265137 -18.319000244140625,-2.6449999809265137 -18.319000244140625,-2.6449999809265137 C-18.538000106811523,-2.6449999809265137 -18.788000106811523,-2.6449999809265137 -19.006999969482422,-2.7079999446868896 C-19.569000244140625,-2.7709999084472656 -20.10099983215332,-2.8949999809265137 -20.569000244140625,-3.1449999809265137 C-20.256000518798828,-7.894999980926514 -19.038000106811523,-12.770000457763672 -16.350000381469727,-16.645000457763672 C-15.256999969482422,-18.23900032043457 -13.880999565124512,-19.707000732421875 -12.255999565124512,-20.770000457763672 C-11.256999969482422,-21.48900032043457 -9.850000381469727,-21.23900032043457 -8.944000244140625,-20.395000457763672 C-6.413000106811523,-18.23900032043457 -3.069000005722046,-17.020999908447266 0.24400000274181366,-16.895999908447266 C3.555999994277954,-16.83300018310547 6.931000232696533,-18.051000595092773 9.586999893188477,-20.11400032043457 C10.524999618530273,-20.802000045776367 11.838000297546387,-20.927000045776367 12.836999893188477,-20.33300018310547 C16.680999755859375,-17.802000045776367 19.149999618530273,-13.550999641418457 20.180999755859375,-9.020000457763672 C20.64900016784668,-7.238999843597412 20.868000030517578,-5.488999843597412 20.868000030517578,-3.6449999809265137z"></path></g></g><g opacity="1" transform="matrix(1,0,0,1,0,0)"><g opacity="1" transform="matrix(1,0,0,1,0,0)"><g opacity="1" transform="matrix(1,0,0,1,0,0)"><path fill="rgb(248,199,59)" fill-opacity="1" d=" M66.71399688720703,-43.14099884033203 C66.71399688720703,-43.14099884033203 35.63399887084961,-43.14099884033203 35.63399887084961,-43.14099884033203 C34.375,-43.14099884033203 33.35599899291992,-44.15999984741211 33.35599899291992,-45.41899871826172 C33.35599899291992,-46.678001403808594 34.375,-47.696998596191406 35.63399887084961,-47.696998596191406 C35.63399887084961,-47.696998596191406 66.71399688720703,-47.696998596191406 66.71399688720703,-47.696998596191406 C67.9729995727539,-47.696998596191406 68.99199676513672,-46.678001403808594 68.99199676513672,-45.41899871826172 C68.99199676513672,-44.15999984741211 67.9729995727539,-43.14099884033203 66.71399688720703,-43.14099884033203z"></path></g></g><g opacity="1" transform="matrix(1,0,0,1,0,0)"><g opacity="1" transform="matrix(1,0,0,1,0,0)"><path fill="rgb(248,199,59)" fill-opacity="1" d=" M76.66799926757812,-28.488000869750977 C76.66799926757812,-28.488000869750977 35.63399887084961,-28.488000869750977 35.63399887084961,-28.488000869750977 C34.375,-28.488000869750977 33.35599899291992,-29.507999420166016 33.35599899291992,-30.767000198364258 C33.35599899291992,-32.0260009765625 34.375,-33.04499816894531 35.63399887084961,-33.04499816894531 C35.63399887084961,-33.04499816894531 76.66799926757812,-33.04499816894531 76.66799926757812,-33.04499816894531 C77.927001953125,-33.04499816894531 78.94599914550781,-32.0260009765625 78.94599914550781,-30.767000198364258 C78.94599914550781,-29.507999420166016 77.927001953125,-28.488000869750977 76.66799926757812,-28.488000869750977z"></path></g></g><g opacity="1" transform="matrix(1,0,0,1,0,0)"><g opacity="1" transform="matrix(1,0,0,1,0,0)"><path fill="rgb(248,199,59)" fill-opacity="1" d=" M87.84500122070312,-13.840999603271484 C87.84500122070312,-13.840999603271484 35.63399887084961,-13.840999603271484 35.63399887084961,-13.840999603271484 C34.375,-13.840999603271484 33.35599899291992,-14.859999656677246 33.35599899291992,-16.118999481201172 C33.35599899291992,-17.378000259399414 34.375,-18.39699935913086 35.63399887084961,-18.39699935913086 C35.63399887084961,-18.39699935913086 87.84500122070312,-18.39699935913086 87.84500122070312,-18.39699935913086 C89.10399627685547,-18.39699935913086 90.12300109863281,-17.378000259399414 90.12300109863281,-16.118999481201172 C90.12300109863281,-14.859999656677246 89.10399627685547,-13.840999603271484 87.84500122070312,-13.840999603271484z"></path></g></g></g><g opacity="1" transform="matrix(0.9999497532844543,0,0,0.9999497532844543,0.00147247314453125,0.00180816650390625)"><g opacity="1" transform="matrix(1,0,0,1,0,0)"><g opacity="1" transform="matrix(1,0,0,1,0,0)"><path fill="rgb(109,211,86)" fill-opacity="1" d=" M53.45899963378906,39.6510009765625 C52.917999267578125,40.1150016784668 52.76300048828125,40.88800048828125 53.111000061035156,41.50699996948242 C53.111000061035156,41.50699996948242 55.779998779296875,46.340999603271484 55.779998779296875,46.340999603271484 C56.24399948120117,47.19200134277344 55.779998779296875,48.275001525878906 54.8129997253418,48.50699996948242 C54.8129997253418,48.50699996948242 49.66899871826172,49.66699981689453 49.66899871826172,49.66699981689453 C48.972999572753906,49.821998596191406 48.470001220703125,50.518001556396484 48.547000885009766,51.25299835205078 C48.547000885009766,51.25299835205078 49.0890007019043,56.9379997253418 49.0890007019043,56.9379997253418 C49.16600036621094,57.904998779296875 48.314998626708984,58.71799850463867 47.347999572753906,58.52399826049805 C47.347999572753906,58.52399826049805 41.547000885009766,57.47999954223633 41.547000885009766,57.47999954223633 C40.85100173950195,57.36399841308594 40.194000244140625,57.750999450683594 39.92300033569336,58.36899948120117 C39.92300033569336,58.36899948120117 37.9119987487793,63.39699935913086 37.9119987487793,63.39699935913086 C37.564998626708984,64.28600311279297 36.48099899291992,64.59600067138672 35.70800018310547,64.01499938964844 C35.70800018310547,64.01499938964844 31.336999893188477,60.805999755859375 31.336999893188477,60.805999755859375 C30.79599952697754,60.38100051879883 30.02199935913086,60.41899871826172 29.520000457763672,60.84400177001953 C29.520000457763672,60.84400177001953 25.034000396728516,64.59600067138672 25.034000396728516,64.59600067138672 C24.29800033569336,65.21399688720703 23.215999603271484,65.02100372314453 22.790000915527344,64.16999816894531 C22.790000915527344,64.16999816894531 20.35300064086914,59.56800079345703 20.35300064086914,59.56800079345703 C20.006000518798828,58.94900131225586 19.30900001525879,58.67900085449219 18.613000869750977,58.87200164794922 C18.613000869750977,58.87200164794922 13.470000267028809,60.49599838256836 13.470000267028809,60.49599838256836 C12.541000366210938,60.766998291015625 11.61400032043457,60.10900115966797 11.574000358581543,59.141998291015625 C11.574000358581543,59.141998291015625 11.22599983215332,52.064998626708984 11.22599983215332,52.064998626708984 C11.22599983215332,52.064998626708984 11.22599983215332,52.027000427246094 11.22599983215332,52.027000427246094 C11.22599983215332,52.027000427246094 10.336999893188477,51.87200164794922 10.336999893188477,51.87200164794922 C10.336999893188477,51.87200164794922 4.76800012588501,50.75 4.76800012588501,50.75 C3.8389999866485596,50.555999755859375 3.2980000972747803,49.55099868774414 3.7239999771118164,48.70000076293945 C3.7239999771118164,48.70000076293945 6.044000148773193,43.75 6.044000148773193,43.75 C6.354000091552734,43.09299850463867 6.120999813079834,42.319000244140625 5.540999889373779,41.93199920654297 C5.540999889373779,41.93199920654297 0.8230000138282776,38.76100158691406 0.8230000138282776,38.76100158691406 C0.4749999940395355,38.52899932861328 0.2809999883174896,38.180999755859375 0.20399999618530273,37.79399871826172 C0.08900000154972076,37.29100036621094 0.2809999883174896,36.75 0.7070000171661377,36.402000427246094 C0.7070000171661377,36.402000427246094 5.077000141143799,32.76599884033203 5.077000141143799,32.76599884033203 C5.61899995803833,32.301998138427734 5.7729997634887695,31.52899932861328 5.38700008392334,30.90999984741211 C5.38700008392334,30.90999984741211 2.6019999980926514,26.03700065612793 2.6019999980926514,26.03700065612793 C2.0989999771118164,25.18600082397461 2.6019999980926514,24.06399917602539 3.569000005722046,23.871000289916992 C3.569000005722046,23.871000289916992 8.944000244140625,22.788000106811523 8.944000244140625,22.788000106811523 C9.680000305175781,22.632999420166016 10.182000160217285,21.937999725341797 10.104999542236328,21.202999114990234 C10.104999542236328,21.202999114990234 9.60200023651123,15.595000267028809 9.60200023651123,15.595000267028809 C9.486000061035156,14.628000259399414 10.336999893188477,13.8149995803833 11.303999900817871,14.008999824523926 C11.303999900817871,14.008999824523926 16.833999633789062,14.937000274658203 16.833999633789062,14.937000274658203 C17.530000686645508,15.053000450134277 18.187999725341797,14.666000366210938 18.458999633789062,14.04800033569336 C18.458999633789062,14.04800033569336 21.089000701904297,7.395999908447266 21.089000701904297,7.395999908447266 C21.128000259399414,7.241000175476074 21.31999969482422,7.241000175476074 21.360000610351562,7.085999965667725 C21.360000610351562,7.085999965667725 27.354000091552734,11.920999526977539 27.354000091552734,11.920999526977539 C27.934999465942383,12.38599967956543 28.746000289916992,12.345999717712402 29.28700065612793,11.843000411987305 C29.28700065612793,11.843000411987305 33.231998443603516,8.130999565124512 33.231998443603516,8.130999565124512 C33.96699905395508,7.473999977111816 35.12699890136719,7.665999889373779 35.553001403808594,8.555999755859375 C35.553001403808594,8.555999755859375 37.98899841308594,13.545000076293945 37.98899841308594,13.545000076293945 C38.29899978637695,14.241000175476074 39.111000061035156,14.550999641418457 39.80699920654297,14.279999732971191 C41.70199966430664,13.545000076293945 43.6349983215332,12.8100004196167 45.53099822998047,12.11400032043457 C45.80099868774414,12.036999702453613 46.150001525878906,11.958999633789062 46.42100143432617,12.11400032043457 C46.768001556396484,12.269000053405762 46.92300033569336,12.694000244140625 46.96200180053711,13.081000328063965 C47.27199935913086,15.092000007629395 47.077999114990234,17.259000778198242 47.077999114990234,19.308000564575195 C47.077999114990234,20.042999267578125 47.58000183105469,20.621999740600586 48.277000427246094,20.777000427246094 C49.630001068115234,21.009000778198242 50.98400115966797,21.240999221801758 52.33700180053711,21.511999130249023 C52.994998931884766,21.628000259399414 53.65299987792969,21.743999481201172 54.310001373291016,21.860000610351562 C54.54199981689453,21.89900016784668 54.736000061035156,21.97599983215332 54.96799850463867,21.97599983215332 C55.237998962402344,21.97599983215332 55.54800033569336,22.014999389648438 55.66400146484375,22.285999298095703 C55.702999114990234,22.51799964904785 55.625,22.711000442504883 55.50899887084961,22.905000686645508 C55.50899887084961,23.097999572753906 55.20000076293945,23.483999252319336 55.12300109863281,23.638999938964844 C54.96799850463867,23.871000289916992 54.85200119018555,24.142000198364258 54.696998596191406,24.374000549316406 C54.696998596191406,24.374000549316406 53.8849983215332,25.882999420166016 53.8849983215332,25.882999420166016 C53.38199996948242,26.850000381469727 52.957000732421875,27.893999099731445 52.492000579833984,28.89900016784668 C52.18199920654297,29.55699920654297 52.415000915527344,30.368999481201172 53.034000396728516,30.756000518798828 C53.034000396728516,30.756000518798828 57.75199890136719,33.733001708984375 57.75199890136719,33.733001708984375 C58.60300064086914,34.275001525878906 58.68000030517578,35.4739990234375 57.86800003051758,36.09199905395508 C57.86800003051758,36.09199905395508 53.45899963378906,39.6510009765625 53.45899963378906,39.6510009765625z"></path></g></g><g opacity="1" transform="matrix(1.0007785558700562,0,0,1.0007785558700562,-0.022808074951171875,-0.028049468994140625)"><g opacity="1" transform="matrix(1,0,0,1,0,0)"><path fill="rgb(246,243,254)" fill-opacity="1" d=" M26.784000396728516,47.03099822998047 C25.482999801635742,46.90599822998047 24.222999572753906,46.32500076293945 23.159000396728516,45.35200119018555 C22.36199951171875,44.62200164794922 21.82200050354004,43.8129997253418 21.389999389648438,43.16699981689453 C19.812000274658203,40.827999114990234 18.052000045776367,38.792999267578125 16.069000244140625,36.992000579833984 C14.630000114440918,35.68600082397461 14.522000312805176,33.457000732421875 15.831999778747559,32.018001556396484 C17.13800048828125,30.57900047302246 19.367000579833984,30.4689998626709 20.805999755859375,31.781999588012695 C23.20199966430664,33.95800018310547 25.334999084472656,36.41899871826172 27.139999389648438,39.09400177001953 C27.139999389648438,39.09700012207031 27.139999389648438,39.097999572753906 27.139999389648438,39.097999572753906 C27.304000854492188,38.8650016784668 27.458999633789062,38.652000427246094 27.604000091552734,38.47200012207031 C27.604000091552734,38.47200012207031 37.4119987487793,26.31100082397461 37.4119987487793,26.31100082397461 C38.63600158691406,24.79800033569336 40.85200119018555,24.565000534057617 42.36600112915039,25.781999588012695 C43.87900161743164,27.006000518798828 44.1150016784668,29.222999572753906 42.89500045776367,30.736000061035156 C42.89500045776367,30.736000061035156 33.08700180053711,42.89699935913086 33.08700180053711,42.89699935913086 C32.9739990234375,43.03499984741211 32.85599899291992,43.2130012512207 32.7239990234375,43.40399932861328 C31.840999603271484,44.683998107910156 30.36199951171875,46.83300018310547 27.753999710083008,47.03799819946289 C27.427000045776367,47.064998626708984 27.101999282836914,47.0620002746582 26.784000396728516,47.03099822998047z"></path></g></g></g></g><g style="display: none;" transform="matrix(1,0,0,1,175,175)" opacity="0.0008005401729083417"><g opacity="1" transform="matrix(1,0,0,1,0,0)"><path stroke-linecap="round" stroke-linejoin="miter" fill-opacity="0" stroke-miterlimit="10" stroke="rgb(109,211,86)" stroke-opacity="1" stroke-width="3.125" d=" M-88.56600189208984,-7.86299991607666 C-91.23899841308594,-11.843000411987305 -93.91200256347656,-15.822999954223633 -96.58499908447266,-19.80299949645996"></path></g><g opacity="1" transform="matrix(1,0,0,1,0,0)"><path stroke-linecap="round" stroke-linejoin="miter" fill-opacity="0" stroke-miterlimit="10" stroke="rgb(109,211,86)" stroke-opacity="1" stroke-width="3.125" d=" M-93.26300048828125,-1.4119999408721924 C-94.72899627685547,-1.534000039100647 -96.19400024414062,-1.656000018119812 -97.66000366210938,-1.777999997138977"></path></g><g opacity="1" transform="matrix(1,0,0,1,0,0)"><path stroke-linecap="round" stroke-linejoin="miter" fill-opacity="0" stroke-miterlimit="10" stroke="rgb(109,211,86)" stroke-opacity="1" stroke-width="3.125" d=" M-92.5199966430664,7.623000144958496 C-95.01300048828125,8.121999740600586 -97.50700378417969,8.621000289916992 -100,9.119999885559082"></path></g></g><g transform="matrix(1,0,0,1,175,175)" opacity="1" style="display: block;"><g opacity="1" transform="matrix(0.9999503493309021,-0.00996589008718729,0.00996589008718729,0.9999503493309021,-0.09991455078125,-0.6922683715820312)"><g opacity="1" transform="matrix(1,0,0,1,0,0)"><path fill="rgb(245,99,87)" fill-opacity="1" d=" M-40.52000045776367,45.220001220703125 C-40.52000045776367,45.220001220703125 -51.659000396728516,51.94900131225586 -51.659000396728516,51.94900131225586 C-51.659000396728516,51.94900131225586 -51.696998596191406,51.987998962402344 -51.696998596191406,51.987998962402344 C-52.470001220703125,50.20899963378906 -53.36000061035156,48.43000030517578 -54.28799819946289,46.72800064086914 C-54.75299835205078,45.79999923706055 -55.255001068115234,44.90999984741211 -55.797000885009766,44.020999908447266 C-55.874000549316406,43.904998779296875 -55.95199966430664,43.78799819946289 -56.02899932861328,43.63399887084961 C-57.49800109863281,41.196998596191406 -59.12300109863281,38.87699890136719 -60.82400131225586,36.63399887084961 C-62.91299819946289,33.88800048828125 -65.27200317382812,31.2189998626709 -68.09500122070312,29.16900062561035 C-69.5250015258789,28.163999557495117 -71.072998046875,27.236000061035156 -72.73600006103516,26.6560001373291 C-74.4000015258789,26.03700065612793 -76.21700286865234,25.882999420166016 -77.87999725341797,25.148000717163086 C-81.16799926757812,23.639999389648438 -83.9520034790039,21.125999450683594 -85.84700012207031,18.031999588012695 C-86.427001953125,17.065000534057617 -86.93000030517578,16.059999465942383 -87.27799987792969,15.053999900817871 C-90.33300018310547,7.008999824523926 -87.31700134277344,-2.311000108718872 -79.697998046875,-6.913000106811523 C-71.1510009765625,-12.095999717712402 -59.9739990234375,-9.35099983215332 -54.75299835205078,-0.7649999856948853 C-53.28300094604492,1.7109999656677246 -52.35499954223633,4.533999919891357 -52.20000076293945,7.395999908447266 C-52.12300109863281,8.75 -52.1619987487793,10.102999687194824 -52.35499954223633,11.456999778747559 C-52.54899978637695,12.925999641418457 -53.24399948120117,14.279999732971191 -53.32099914550781,15.788000106811523 C-53.47600173950195,17.374000549316406 -53.36000061035156,18.958999633789062 -53.0890007019043,20.506000518798828 C-52.50899887084961,23.79400062561035 -51.310001373291016,26.965999603271484 -49.917999267578125,30.020999908447266 C-48.68000030517578,32.57400131225586 -47.3650016784668,35.08700180053711 -45.895999908447266,37.52399826049805 C-45.819000244140625,37.63999938964844 -45.779998779296875,37.755001068115234 -45.66400146484375,37.87099838256836 C-45.12300109863281,38.76100158691406 -44.58000183105469,39.61199951171875 -43.96200180053711,40.4630012512207 C-42.917999267578125,42.125999450683594 -41.757999420166016,43.672000885009766 -40.52000045776367,45.220001220703125z"></path></g><g opacity="1" transform="matrix(1,0,0,1,0,0)"><path fill="rgb(225,26,23)" fill-opacity="1" d=" M-55.801998138427734,44.0260009765625 C-55.801998138427734,44.0260009765625 -45.67499923706055,37.882999420166016 -45.67499923706055,37.882999420166016 C-45.137001037597656,38.768001556396484 -44.56999969482422,39.630001068115234 -43.972999572753906,40.47200012207031 C-43.972999572753906,40.47200012207031 -43.31800079345703,40.08000183105469 -43.31800079345703,40.08000183105469 C-41.82699966430664,42.35300064086914 -40.22700119018555,44.59000015258789 -38.53499984741211,46.737998962402344 C-38.53499984741211,46.737998962402344 -51.90800094604492,54.819000244140625 -51.90800094604492,54.819000244140625 C-53.00299835205078,52.321998596191406 -54.236000061035156,49.882999420166016 -55.555999755859375,47.50699996948242 C-55.555999755859375,47.50699996948242 -54.270999908447266,46.71900177001953 -54.270999908447266,46.71900177001953 C-54.755001068115234,45.81700134277344 -55.263999938964844,44.9109992980957 -55.801998138427734,44.0260009765625z"></path></g><g opacity="1" transform="matrix(1,0,0,1,0,0)"><path fill="rgb(111,110,207)" fill-opacity="1" d=" M-73.5780029296875,58.400001525878906 C-73.5780029296875,58.400001525878906 -55.555999755859375,47.50699996948242 -55.555999755859375,47.50699996948242 C-55.555999755859375,47.50699996948242 -54.270999908447266,46.71900177001953 -54.270999908447266,46.71900177001953 C-54.270999908447266,46.71900177001953 -43.972999572753906,40.47200012207031 -43.972999572753906,40.47200012207031 C-43.972999572753906,40.47200012207031 -43.31800079345703,40.08000183105469 -43.31800079345703,40.08000183105469 C-43.31800079345703,40.08000183105469 -25.492000579833984,29.285999298095703 -25.492000579833984,29.285999298095703 C-21.268999099731445,26.719999313354492 -15.807000160217285,28.070999145507812 -13.241000175476074,32.29399871826172 C-13.241000175476074,32.29399871826172 -8.027999877929688,40.88100051879883 -8.027999877929688,40.88100051879883 C-8.027999877929688,40.88100051879883 -5.895999908447266,44.39099884033203 -5.895999908447266,44.39099884033203 C-5.895999908447266,44.39099884033203 -4.5960001945495605,46.555999755859375 -4.5960001945495605,46.555999755859375 C-4.5960001945495605,46.555999755859375 -67.94100189208984,84.91300201416016 -67.94100189208984,84.91300201416016 C-67.94100189208984,84.91300201416016 -69.24099731445312,82.74700164794922 -69.24099731445312,82.74700164794922 C-69.24099731445312,82.74700164794922 -71.37200164794922,79.23799896240234 -71.37200164794922,79.23799896240234 C-71.37200164794922,79.23799896240234 -76.58599853515625,70.6510009765625 -76.58599853515625,70.6510009765625 C-79.1259994506836,66.43199920654297 -77.77200317382812,60.944000244140625 -73.5780029296875,58.400001525878906z"></path></g><g opacity="1" transform="matrix(1,0,0,1,0,0)"><path fill="rgb(89,90,183)" fill-opacity="1" d=" M-8.038999557495117,40.88800048828125 C-8.038999557495117,40.88800048828125 -4.607999801635742,46.553001403808594 -4.607999801635742,46.553001403808594 C-4.607999801635742,46.553001403808594 -67.93900299072266,84.90799713134766 -67.93900299072266,84.90799713134766 C-67.93900299072266,84.90799713134766 -71.37100219726562,79.24299621582031 -71.37100219726562,79.24299621582031 C-71.37100219726562,79.24299621582031 -8.038999557495117,40.88800048828125 -8.038999557495117,40.88800048828125z"></path></g><g opacity="1" transform="matrix(1,0,0,1,0,0)"><path fill="rgb(239,159,39)" fill-opacity="1" d=" M5.245999813079834,53.12799835205078 C5.245999813079834,53.12799835205078 -65.93099975585938,96.23500061035156 -65.93099975585938,96.23500061035156 C-68.07099914550781,97.53099822998047 -70.85800170898438,96.84600067138672 -72.15399932861328,94.70600128173828 C-72.15399932861328,94.70600128173828 -74.32099914550781,91.12799835205078 -74.32099914550781,91.12799835205078 C-75.61699676513672,88.98799896240234 -74.93199920654297,86.2020034790039 -72.79199981689453,84.90599822998047 C-72.79199981689453,84.90599822998047 -1.6150000095367432,41.79899978637695 -1.6150000095367432,41.79899978637695 C0.5249999761581421,40.50299835205078 3.312000036239624,41.1870002746582 4.607999801635742,43.32699966430664 C4.607999801635742,43.32699966430664 6.775000095367432,46.904998779296875 6.775000095367432,46.904998779296875 C8.071000099182129,49.04499816894531 7.386000156402588,51.832000732421875 5.245999813079834,53.12799835205078z"></path></g><g opacity="1" transform="matrix(1,0,0,1,0,0)"><g opacity="1" transform="matrix(1,0,0,1,0,0)"><path fill="rgb(179,181,230)" fill-opacity="1" d=" M-49.54999923706055,58.75199890136719 C-50.40999984741211,58.84700012207031 -51.29399871826172,58.44200134277344 -51.76300048828125,57.645999908447266 C-52.40800094604492,56.56399917602539 -52.051998138427734,55.1609992980957 -50.96500015258789,54.52000045776367 C-50.96500015258789,54.52000045776367 -38.61800003051758,47.18600082397461 -38.61800003051758,47.18600082397461 C-37.5260009765625,46.54899978637695 -36.13199996948242,46.902000427246094 -35.487998962402344,47.97999954223633 C-34.84299850463867,49.066001892089844 -35.19900131225586,50.46500015258789 -36.28099822998047,51.11000061035156 C-36.28099822998047,51.11000061035156 -48.637001037597656,58.44499969482422 -48.637001037597656,58.44499969482422 C-48.92300033569336,58.61600112915039 -49.23500061035156,58.71699905395508 -49.54999923706055,58.75199890136719z"></path></g></g><g opacity="1" transform="matrix(1,0,0,1,0,0)"><path stroke-linecap="round" stroke-linejoin="round" fill-opacity="0" stroke="rgb(254,159,139)" stroke-opacity="1" stroke-width="3.125" d=" M-78.08399963378906,13.399999618530273 C-80.01499938964844,10.626999855041504 -79.90799713134766,7.085000038146973 -77.81300354003906,4.382999897003174"></path></g><g opacity="0.37" transform="matrix(1,0,0,1,0,0)"><path fill="rgb(255,255,255)" fill-opacity="1" d=" M-68.46399688720703,4.245999813079834 C-67.64700317382812,3.059999942779541 -66.26499938964844,2.3010001182556152 -64.83100128173828,2.1689999103546143 C-62.12799835205078,1.9199999570846558 -59.428001403808594,4.084000110626221 -59.08399963378906,6.7769999504089355 C-58.7400016784668,9.470000267028809 -60.80799865722656,12.244000434875488 -63.48699951171875,12.682999610900879 C-68.23400115966797,13.461000442504883 -71.04399871826172,7.991000175476074 -68.46399688720703,4.245999813079834z"></path></g></g></g><g transform="matrix(0.23999999463558197,0,0,0.23999999463558197,253,173.3004150390625)" opacity="1" style="display: block;"><g opacity="1" transform="matrix(0.04884801805019379,0,0,0.04884801805019379,0,0)"><path fill="rgb(255,255,255)" fill-opacity="1" d=" M1.089910073407167e-14,-177.99581909179688 C1.089910073407167e-14,-177.99581909179688 0.6008042097091675,-14.218472480773926 7.409638404846191,-7.409638404846191 C14.218472480773926,-0.6008042097091675 177.99581909179688,0 177.99581909179688,0 C177.99581909179688,0 14.218472480773926,0.6008042097091675 7.409638404846191,7.409638404846191 C0.6008042097091675,14.218472480773926 1.089910073407167e-14,177.99581909179688 1.089910073407167e-14,177.99581909179688 C1.089910073407167e-14,177.99581909179688 -0.6008042097091675,14.218472480773926 -7.409638404846191,7.409638404846191 C-14.218472480773926,0.6008042097091675 -177.99581909179688,2.179820146814334e-14 -177.99581909179688,2.179820146814334e-14 C-177.99581909179688,2.179820146814334e-14 -14.218472480773926,-0.6008042097091675 -7.409638404846191,-7.409638404846191 C-0.6008042097091675,-14.218472480773926 1.089910073407167e-14,-177.99581909179688 1.089910073407167e-14,-177.99581909179688z"></path></g></g><g transform="matrix(0.23999999463558197,0,0,0.23999999463558197,203,113.3004150390625)" opacity="1" style="display: block;"><g opacity="1" transform="matrix(0.9367863535881042,0,0,0.9367863535881042,0,0)"><path fill="rgb(255,255,255)" fill-opacity="1" d=" M3.823886618182755e-15,-62.44880676269531 C3.823886618182755e-15,-62.44880676269531 0.7439952492713928,-17.607192993164062 9.175594329833984,-9.175594329833984 C17.607192993164062,-0.7439952492713928 62.44880676269531,0 62.44880676269531,0 C62.44880676269531,0 17.607192993164062,0.7439952492713928 9.175594329833984,9.175594329833984 C0.7439952492713928,17.607192993164062 3.823886618182755e-15,62.44880676269531 3.823886618182755e-15,62.44880676269531 C3.823886618182755e-15,62.44880676269531 -0.7439952492713928,17.607192993164062 -9.175594329833984,9.175594329833984 C-17.607192993164062,0.7439952492713928 -62.44880676269531,7.64777323636551e-15 -62.44880676269531,7.64777323636551e-15 C-62.44880676269531,7.64777323636551e-15 -17.607192993164062,-0.7439952492713928 -9.175594329833984,-9.175594329833984 C-0.7439952492713928,-17.607192993164062 3.823886618182755e-15,-62.44880676269531 3.823886618182755e-15,-62.44880676269531z"></path></g></g><g transform="matrix(0.23999999463558197,0,0,0.23999999463558197,140,230)" opacity="1" style="display: block;"><g opacity="1" transform="matrix(0.3581860363483429,0,0,0.3581860363483429,0,0)"><path fill="rgb(255,255,255)" fill-opacity="1" d=" M7.57369173479865e-15,-123.68777465820312 C7.57369173479865e-15,-123.68777465820312 0.6580806374549866,-15.57396125793457 8.116021156311035,-8.116021156311035 C15.57396125793457,-0.6580806374549866 123.68777465820312,0 123.68777465820312,0 C123.68777465820312,0 15.57396125793457,0.6580806374549866 8.116021156311035,8.116021156311035 C0.6580806374549866,15.57396125793457 7.57369173479865e-15,123.68777465820312 7.57369173479865e-15,123.68777465820312 C7.57369173479865e-15,123.68777465820312 -0.6580806374549866,15.57396125793457 -8.116021156311035,8.116021156311035 C-15.57396125793457,0.6580806374549866 -123.68777465820312,1.51473834695973e-14 -123.68777465820312,1.51473834695973e-14 C-123.68777465820312,1.51473834695973e-14 -15.57396125793457,-0.6580806374549866 -8.116021156311035,-8.116021156311035 C-0.6580806374549866,-15.57396125793457 7.57369173479865e-15,-123.68777465820312 7.57369173479865e-15,-123.68777465820312z"></path></g></g><g transform="matrix(0.23999999463558197,0,0,0.23999999463558197,200,232.3004150390625)" opacity="1" style="display: block;"><g opacity="1" transform="matrix(0.9367863535881042,0,0,0.9367863535881042,0,0)"><path fill="rgb(255,255,255)" fill-opacity="1" d=" M3.823886618182755e-15,-62.44880676269531 C3.823886618182755e-15,-62.44880676269531 0.7439952492713928,-17.607192993164062 9.175594329833984,-9.175594329833984 C17.607192993164062,-0.7439952492713928 62.44880676269531,0 62.44880676269531,0 C62.44880676269531,0 17.607192993164062,0.7439952492713928 9.175594329833984,9.175594329833984 C0.7439952492713928,17.607192993164062 3.823886618182755e-15,62.44880676269531 3.823886618182755e-15,62.44880676269531 C3.823886618182755e-15,62.44880676269531 -0.7439952492713928,17.607192993164062 -9.175594329833984,9.175594329833984 C-17.607192993164062,0.7439952492713928 -62.44880676269531,7.64777323636551e-15 -62.44880676269531,7.64777323636551e-15 C-62.44880676269531,7.64777323636551e-15 -17.607192993164062,-0.7439952492713928 -9.175594329833984,-9.175594329833984 C-0.7439952492713928,-17.607192993164062 3.823886618182755e-15,-62.44880676269531 3.823886618182755e-15,-62.44880676269531z"></path></g></g></g></svg>
