<svg xmlns="http://www.w3.org/2000/svg" xmlns:xlink="http://www.w3.org/1999/xlink"
  xmlns:svgjs="http://svgjs.com/svgjs" id="SvgjsSvg1001" width="256" height="256" version="1.1">
  <defs id="SvgjsDefs1002" />
  <g id="SvgjsG1008">
    <svg xmlns="http://www.w3.org/2000/svg" data-name="Layer 1" viewBox="0 0 24 24" width="256"
      height="256">
      <path fill="#FFBF66" d="M19,9H14a2,2,0,0,1-2-2V2Z" class="color6563ff svgShape" />
      <path fill="#52CC99"
        d="M14,9a2,2,0,0,1-2-2V2H6A3,3,0,0,0,3,5V19a3,3,0,0,0,3,3H16a3,3,0,0,0,3-3V9Z"
        class="colorb2b1ff svgShape" />
      <path fill="#FFBF66"
        d="M20.707,15.29346l-3-3A.99989.99989,0,1,0,16.293,13.70752l1.293,1.293H12a1,1,0,0,0,0,2h5.58594l-1.293,1.293A.99989.99989,0,1,0,17.707,19.70752l3-3A.99962.99962,0,0,0,20.707,15.29346Z"
        class="color6563ff svgShape" />
    </svg>
  </g>
</svg>