<svg id="SvgjsSvg1741" width="256" height="256" xmlns="http://www.w3.org/2000/svg" version="1.1" xmlns:xlink="http://www.w3.org/1999/xlink" xmlns:svgjs="http://svgjs.com/svgjs"><defs id="SvgjsDefs1742"></defs><g id="SvgjsG1743"><svg xmlns="http://www.w3.org/2000/svg" data-name="Layer 1" viewBox="0 0 128 128" width="256" height="256"><path d="M109 6a2.0001 2.0001 0 002-2V2a2 2 0 00-4 0V4A2.0001 2.0001 0 00109 6zM109 31a2.0001 2.0001 0 002-2V27a2 2 0 00-4 0v2A2.0001 2.0001 0 00109 31zM118.5 15.5a2.0001 2.0001 0 002 2h2a2 2 0 000-4h-2A2.0001 2.0001 0 00118.5 15.5zM109 17.5h3.5a2 2 0 000-4H111V12a2 2 0 00-4 0v3.5A2.0001 2.0001 0 00109 17.5zM95.5 17.5h2a2 2 0 000-4h-2a2 2 0 000 4zM117.13184 9.36816a1.99352 1.99352 0 001.41406-.58594L119.96 7.36816A1.99979 1.99979 0 00117.13184 4.54L115.71777 5.9541a2 2 0 001.41406 3.41406zM99.4541 22.21777L98.04 23.63184A1.99979 1.99979 0 10100.86816 26.46l1.41406-1.41406a1.99979 1.99979 0 00-2.82813-2.82812zM117.13184 26.46A1.99979 1.99979 0 00119.96 23.63184l-1.41406-1.41406a1.99979 1.99979 0 00-2.82812 2.82813zM99.4541 8.78223a1.99979 1.99979 0 102.82813-2.82812L100.86816 4.54A1.99979 1.99979 0 0098.04 7.36816zM46.54388 42.5A12.16235 12.16235 0 0155.5 38.5h.51556a1.99182 1.99182 0 00.68268 1.37549L59.76007 42.5h8.47986l3.06183-2.62451A1.99182 1.99182 0 0071.98444 38.5H72.5a12.16235 12.16235 0 018.95612 4h3.248a9.92773 9.92773 0 011.82819.179A16.36454 16.36454 0 0072.5 34.5H72V32.02649A10.949 10.949 0 0075 24.5v-6a11 11 0 00-22 0v6a10.949 10.949 0 003 7.52649V34.5h-.5a16.36454 16.36454 0 00-14.03229 8.179A9.92773 9.92773 0 0143.2959 42.5zM60 34.736a10.85351 10.85351 0 008 0v2.701l-4 3.42871L60 37.437zM122 88a6.00656 6.00656 0 006-6V76a2.0001 2.0001 0 00-2-2H113.31482a7 7 0 10-12.62964 0H89.08209a5.9482 5.9482 0 00.17865-1.07227l1.42871-20.00049A6.00155 6.00155 0 0084.7041 46.5H43.2959a6.0016 6.0016 0 00-5.98535 6.42773l1.42871 20A5.9482 5.9482 0 0038.91791 74H27V60a2.0001 2.0001 0 00-2-2H22V50a2 2 0 00-4 0v8H16.44159L12.89746 47.36768a2 2 0 10-3.79492 1.26465L12.2251 58H11a2.0001 2.0001 0 00-2 2V74H2a2.0001 2.0001 0 00-2 2v6a6.00656 6.00656 0 006 6H7.53125v26H6a6.00656 6.00656 0 00-6 6v6a2.0001 2.0001 0 002 2H126a2.0001 2.0001 0 002-2v-6a6.00656 6.00656 0 00-6-6h-.5V88zM107 68a3 3 0 11-3 3A3.00328 3.00328 0 01107 68zM64 58a4 4 0 11-4 4A4 4 0 0164 58zm58 60a2.00261 2.00261 0 012 2v4H4v-4a2.00261 2.00261 0 012-2zM11.53125 114V88H17.5v26zM44 99a2 2 0 010-4H84a2 2 0 010 4zm35 6a2.0001 2.0001 0 01-2 2H51a2 2 0 010-4H77A2.0001 2.0001 0 0179 105zm32.53125 9V88H117.5v26zM6 84a2.00261 2.00261 0 01-2-2V78H124v4a2.00261 2.00261 0 01-2 2z" fill="#595bd4" class="color000 svgShape"></path></svg></g></svg>
