<svg xmlns="http://www.w3.org/2000/svg" data-name="Layer 1" viewBox="0 0 64 64" width="256" height="256"><path fill="#d8a353" d="M54,49l-2,6-2-6V11a2,2,0,0,1,2-2h0a2,2,0,0,1,2,2Z" class="colorfbcc34 svgShape"></path><rect width="4" height="34" x="50" y="15" fill="#8526fe" class="color8cc63f svgShape"></rect><polygon fill="#5fe4d4" points="47 61 7 61 7 3 40 3 47 10 47 61" class="colord3d1d3 svgShape"></polygon><polyline fill="#8526fe" points="33 18 33 11 27 7 21 11 21 18" opacity=".5" class="color8cc63f svgShape"></polyline><polyline fill="#ad59d4" points="25 18 25 14 29 14 29 18" class="colorf4e09c svgShape"></polyline><path d="M7,62H47a1,1,0,0,0,1-1V10a1,1,0,0,0-.29-.71l-7-7A1,1,0,0,0,40,2H7A1,1,0,0,0,6,3V61A1,1,0,0,0,7,62ZM8,4H39.59L46,10.41V60H8Z" fill="#000000" class="color000 svgShape"></path><path d="M36,17H34V11a1,1,0,0,0-.45-.83l-6-4a1,1,0,0,0-1.1,0l-6,4A1,1,0,0,0,20,11v6H18v2H36Zm-8,0H26V15h2Zm4,0H30V14a1,1,0,0,0-1-1H25a1,1,0,0,0-1,1v3H22V11.54L27,8.2l5,3.34Z" fill="#000000" class="color000 svgShape"></path><rect width="14" height="2" x="30" y="24" fill="#000000" class="color000 svgShape"></rect><rect width="2" height="2" x="26" y="24" fill="#000000" class="color000 svgShape"></rect><rect width="2" height="2" x="22" y="24" fill="#000000" class="color000 svgShape"></rect><rect width="2" height="2" x="18" y="24" fill="#000000" class="color000 svgShape"></rect><rect width="22" height="2" x="10" y="31" fill="#000000" class="color000 svgShape"></rect><rect width="2" height="2" x="34" y="31" fill="#000000" class="color000 svgShape"></rect><rect width="2" height="2" x="38" y="31" fill="#000000" class="color000 svgShape"></rect><rect width="2" height="2" x="42" y="31" fill="#000000" class="color000 svgShape"></rect><rect width="22" height="2" x="22" y="38" fill="#000000" class="color000 svgShape"></rect><rect width="2" height="2" x="18" y="38" fill="#000000" class="color000 svgShape"></rect><rect width="2" height="2" x="14" y="38" fill="#000000" class="color000 svgShape"></rect><rect width="2" height="2" x="10" y="38" fill="#000000" class="color000 svgShape"></rect><rect width="22" height="2" x="10" y="45" fill="#000000" class="color000 svgShape"></rect><rect width="2" height="2" x="34" y="45" fill="#000000" class="color000 svgShape"></rect><rect width="2" height="2" x="38" y="45" fill="#000000" class="color000 svgShape"></rect><rect width="2" height="2" x="42" y="45" fill="#000000" class="color000 svgShape"></rect><rect width="22" height="2" x="22" y="52" fill="#000000" class="color000 svgShape"></rect><rect width="2" height="2" x="18" y="52" fill="#000000" class="color000 svgShape"></rect><rect width="2" height="2" x="14" y="52" fill="#000000" class="color000 svgShape"></rect><rect width="2" height="2" x="10" y="52" fill="#000000" class="color000 svgShape"></rect><path d="M58,24V17a3,3,0,0,0-3-3V11a3,3,0,0,0-6,0V49a1.19,1.19,0,0,0,0,.32l2,6a1,1,0,0,0,1.9,0l2-6A1.19,1.19,0,0,0,55,49V16a1,1,0,0,1,1,1v7ZM52,51.84,51.39,50h1.22ZM53,48H51V16h2Zm0-34H51V11a1,1,0,0,1,2,0Z" fill="#000000" class="color000 svgShape"></path></svg>
