<svg xmlns="http://www.w3.org/2000/svg" enable-background="new 0 0 64 64" viewBox="0 0 64 64" width="256" height="256"><path fill="#ffdb41" d="M47,23H7v28c0,2.2,1.8,4,4,4h32c2.2,0,4-1.8,4-4V23z" class="colorffdb41 svgShape"></path><circle cx="42" cy="23" r="15" fill="#1c94f9" class="color1c94f9 svgShape"></circle><linearGradient id="a" x1="5" x2="59" y1="31.5" y2="31.5" gradientUnits="userSpaceOnUse"><stop offset=".002" stop-color="#034a7a" class="stopColor034a7a svgShape"></stop><stop offset="1" stop-color="#002f49" class="stopColor002f49 svgShape"></stop></linearGradient><path fill="url(#a)" d="M59,23c0-9.4-7.6-17-17-17c-4.1,0-8,1.5-11,4.1V8c0-1.1-0.9-2-2-2s-2,0.9-2,2v7c0,1.1,0.9,2,2,2h0.3			c0,0,0,0,0,0H36c1.1,0,2-0.9,2-2s-0.9-2-2-2h-2.3c2.3-1.9,5.2-3,8.3-3c7.2,0,13,5.8,13,13s-5.8,13-13,13s-13-5.8-13-13
			c0-1.1-0.9-2-2-2H9v-1.3c0-1.5,1.2-2.7,2.7-2.7H21c1.1,0,2-0.9,2-2s-0.9-2-2-2h-9.3C8,13,5,16,5,19.7v30.6C5,54,8,57,11.7,57h30.6
			c3.7,0,6.7-3,6.7-6.7V38.5C54.9,35.8,59,29.9,59,23z M45,50.3c0,1.5-1.2,2.7-2.7,2.7H11.7C10.2,53,9,51.8,9,50.3V25h16.1
			c0.5,4.4,2.7,8.3,5.9,11c0,0-0.1,0-0.1,0c-1.1,0-2,0.9-2,2v1c0,1.1,0.9,2,2,2s2-0.9,2-2v-1c0-0.2,0-0.5-0.1-0.7
			c1.3,0.8,2.7,1.5,4.2,1.9c0.1,1,1,1.7,2,1.7c0.8,0,1.4-0.4,1.8-1.1c0.4,0,0.8,0.1,1.2,0.1c1,0,2-0.1,3-0.3V50.3z"></path><linearGradient id="b" x1="13" x2="17" y1="30.5" y2="30.5" gradientUnits="userSpaceOnUse"><stop offset=".002" stop-color="#034a7a" class="stopColor034a7a svgShape"></stop><stop offset="1" stop-color="#002f49" class="stopColor002f49 svgShape"></stop></linearGradient><path fill="url(#b)" d="M15,28c-1.1,0-2,0.9-2,2v1c0,1.1,0.9,2,2,2s2-0.9,2-2v-1C17,28.9,16.1,28,15,28z"></path><linearGradient id="c" x1="21" x2="25" y1="30.5" y2="30.5" gradientUnits="userSpaceOnUse"><stop offset=".002" stop-color="#034a7a" class="stopColor034a7a svgShape"></stop><stop offset="1" stop-color="#002f49" class="stopColor002f49 svgShape"></stop></linearGradient><path fill="url(#c)" d="M23,28c-1.1,0-2,0.9-2,2v1c0,1.1,0.9,2,2,2s2-0.9,2-2v-1C25,28.9,24.1,28,23,28z"></path><linearGradient id="d" x1="13" x2="17" y1="38.5" y2="38.5" gradientUnits="userSpaceOnUse"><stop offset=".002" stop-color="#034a7a" class="stopColor034a7a svgShape"></stop><stop offset="1" stop-color="#002f49" class="stopColor002f49 svgShape"></stop></linearGradient><path fill="url(#d)" d="M15,36c-1.1,0-2,0.9-2,2v1c0,1.1,0.9,2,2,2s2-0.9,2-2v-1C17,36.9,16.1,36,15,36z"></path><linearGradient id="e" x1="21" x2="25" y1="38.5" y2="38.5" gradientUnits="userSpaceOnUse"><stop offset=".002" stop-color="#034a7a" class="stopColor034a7a svgShape"></stop><stop offset="1" stop-color="#002f49" class="stopColor002f49 svgShape"></stop></linearGradient><path fill="url(#e)" d="M23,36c-1.1,0-2,0.9-2,2v1c0,1.1,0.9,2,2,2s2-0.9,2-2v-1C25,36.9,24.1,36,23,36z"></path><linearGradient id="f" x1="13" x2="17" y1="46.5" y2="46.5" gradientUnits="userSpaceOnUse"><stop offset=".002" stop-color="#034a7a" class="stopColor034a7a svgShape"></stop><stop offset="1" stop-color="#002f49" class="stopColor002f49 svgShape"></stop></linearGradient><path fill="url(#f)" d="M15,44c-1.1,0-2,0.9-2,2v1c0,1.1,0.9,2,2,2s2-0.9,2-2v-1C17,44.9,16.1,44,15,44z"></path><linearGradient id="g" x1="21" x2="25" y1="46.5" y2="46.5" gradientUnits="userSpaceOnUse"><stop offset=".002" stop-color="#034a7a" class="stopColor034a7a svgShape"></stop><stop offset="1" stop-color="#002f49" class="stopColor002f49 svgShape"></stop></linearGradient><path fill="url(#g)" d="M23,44c-1.1,0-2,0.9-2,2v1c0,1.1,0.9,2,2,2s2-0.9,2-2v-1C25,44.9,24.1,44,23,44z"></path><linearGradient id="h" x1="29" x2="33" y1="46.5" y2="46.5" gradientUnits="userSpaceOnUse"><stop offset=".002" stop-color="#034a7a" class="stopColor034a7a svgShape"></stop><stop offset="1" stop-color="#002f49" class="stopColor002f49 svgShape"></stop></linearGradient><path fill="url(#h)" d="M31,44c-1.1,0-2,0.9-2,2v1c0,1.1,0.9,2,2,2s2-0.9,2-2v-1C33,44.9,32.1,44,31,44z"></path><linearGradient id="i" x1="37" x2="41" y1="46.5" y2="46.5" gradientUnits="userSpaceOnUse"><stop offset=".002" stop-color="#034a7a" class="stopColor034a7a svgShape"></stop><stop offset="1" stop-color="#002f49" class="stopColor002f49 svgShape"></stop></linearGradient><path fill="url(#i)" d="M39,44c-1.1,0-2,0.9-2,2v1c0,1.1,0.9,2,2,2s2-0.9,2-2v-1C41,44.9,40.1,44,39,44z"></path><linearGradient id="j" x1="40" x2="50" y1="18.5" y2="18.5" gradientUnits="userSpaceOnUse"><stop offset=".002" stop-color="#034a7a" class="stopColor034a7a svgShape"></stop><stop offset="1" stop-color="#002f49" class="stopColor002f49 svgShape"></stop></linearGradient><path fill="url(#j)" d="M42,12c-1.1,0-2,0.9-2,2v9c0,1.1,0.9,2,2,2h6c1.1,0,2-0.9,2-2s-0.9-2-2-2h-4v-7C44,12.9,43.1,12,42,12z"></path></svg>
