<svg id="SvgjsSvg1001" width="256" height="256" xmlns="http://www.w3.org/2000/svg" version="1.1"
  xmlns:xlink="http://www.w3.org/1999/xlink" xmlns:svgjs="http://svgjs.com/svgjs">
  <defs id="SvgjsDefs1002"></defs>
  <g id="SvgjsG1008">
    <svg xmlns="http://www.w3.org/2000/svg" enable-background="new 0 0 64 64" viewBox="0 0 64 64"
      width="256" height="256">
      <path fill="#ffbf66"
        d="M57.083,49.345C60.495,44.42,62.5,38.445,62.5,32C62.5,15.155,48.845,1.5,32,1.5S1.5,15.155,1.5,32				c0,16.845,13.655,30.5,30.5,30.5c6.445,0,12.42-2.005,17.345-5.417L62.5,62.5L57.083,49.345z"
        class="colorfcda35 svgShape"></path>
      <circle cx="32" cy="32" r="25.5" fill="#52cc99" class="colorfff svgShape"></circle>
      <path fill="#767fad"
        d="M62.5,62.5l-13.15-5.42C44.42,60.5,38.45,62.5,32,62.5C15.16,62.5,1.5,48.84,1.5,32
  c0-9.69,4.53-18.33,11.59-23.92c0.38,1.83,0.86,3.62,1.42,5.37c2.76,8.44,7.63,15.93,13.99,21.83c2.17,2.01,4.51,3.84,7,5.45
  c4.99,3.24,10.58,5.64,16.56,6.99c1.79,0.41,3.62,0.73,5.48,0.93c-0.14,0.24-0.3,0.47-0.46,0.7L62.5,62.5z"
        class="colorfaca00 svgShape"></path>
      <path fill="#efefef"
        d="M52.06,47.72C47.41,53.67,40.15,57.5,32,57.5C17.92,57.5,6.5,46.08,6.5,32c0-7.31,3.08-13.9,8.01-18.55
  c2.76,8.44,7.63,15.93,13.99,21.83c2.17,2.01,4.51,3.84,7,5.45C40.49,43.97,46.08,46.37,52.06,47.72z"
        class="colorefefef svgShape"></path>
      <circle cx="32" cy="17" r="3.5" fill="#06b6ff" class="color06afff svgShape"></circle>
      <polygon fill="#06b6ff"
        points="35.5 47.5 35.5 23.5 28.5 23.5 25.5 23.5 25.5 26.5 28.5 26.5 28.5 47.5 25.5 47.5 25.5 50.5 38.5 50.5 38.5 47.5"
        class="color06afff svgShape"></polygon>
      <path fill="#0191cd" d="M38.5,47.5v3h-13v-3h3V35.28c2.17,2.01,4.51,3.84,7,5.45v6.77H38.5z"
        class="color0688ff svgShape"></path>
      <path fill="#288eb8"
        d="M32,58C17.663,58,6,46.336,6,32S17.663,6,32,6c2.618,0,5.201,0.388,7.678,1.153
    c0.264,0.081,0.412,0.361,0.33,0.625s-0.363,0.409-0.625,0.33C37.002,7.373,34.518,7,32,7C18.215,7,7,18.215,7,32
    s11.215,25,25,25s25-11.215,25-25c0-5.913-2.102-11.649-5.919-16.154c-0.178-0.211-0.152-0.526,0.059-0.705
    c0.21-0.177,0.525-0.152,0.705,0.058C55.813,19.885,58,25.851,58,32C58,46.336,46.337,58,32,58z"
        class="color2828b8 svgShape"></path>
      <path fill="#288eb8"
        d="M47.428,12.194c-0.105,0-0.212-0.033-0.303-0.102c-1.518-1.154-3.165-2.134-4.897-2.911
    c-0.252-0.113-0.364-0.409-0.251-0.661s0.409-0.364,0.661-0.251c1.801,0.808,3.515,1.827,5.093,3.027
    c0.22,0.167,0.263,0.481,0.096,0.701C47.728,12.126,47.578,12.194,47.428,12.194z"
        class="color2828b8 svgShape"></path>
      <path fill="#288eb8"
        d="M62.5,63c-0.064,0-0.129-0.012-0.19-0.038l-12.905-5.314C44.256,61.15,38.244,63,32,63
    C14.906,63,1,49.093,1,32S14.906,1,32,1s31,13.907,31,31c0,6.243-1.85,12.255-5.352,17.405l5.313,12.904
    c0.077,0.187,0.034,0.401-0.108,0.544C62.758,62.949,62.63,63,62.5,63z M32,2C15.458,2,2,15.458,2,32s13.458,30,30,30
    c6.131,0,12.03-1.842,17.06-5.328c0.14-0.097,0.318-0.116,0.476-0.051l12.046,4.96l-4.96-12.045
    c-0.065-0.157-0.046-0.336,0.051-0.475C60.157,44.029,62,38.13,62,32C62,15.458,48.542,2,32,2z"
        class="color2828b8 svgShape"></path>
      <path fill="#288eb8"
        d="M32 21c-2.206 0-4-1.794-4-4s1.794-4 4-4 4 1.794 4 4S34.206 21 32 21zM32 14c-1.654 0-3 1.346-3 3s1.346 3 3 3 3-1.346 3-3S33.654 14 32 14zM38.5 51h-13c-.276 0-.5-.224-.5-.5v-3c0-.276.224-.5.5-.5H28V27h-2.5c-.276 0-.5-.224-.5-.5v-3c0-.276.224-.5.5-.5h10c.276 0 .5.224.5.5V47h2.5c.276 0 .5.224.5.5v3C39 50.776 38.776 51 38.5 51zM26 50h12v-2h-2.5c-.276 0-.5-.224-.5-.5V24h-9v2h2.5c.276 0 .5.224.5.5v21c0 .276-.224.5-.5.5H26V50z"
        class="color2828b8 svgShape"></path>
    </svg>
  </g>
</svg>