<svg xmlns="http://www.w3.org/2000/svg" width="116" height="62" viewBox="0 0 116 62" fill="none">
<path d="M7.0464 51.8405L6.79706 50.7158C6.72087 50.3721 6.61691 50.051 6.48517 49.7525C6.57904 49.4367 6.40766 48.5897 5.97102 47.2115C5.74231 46.4756 5.54477 45.8802 5.37839 45.4254C5.24326 44.9637 5.15492 44.6392 5.11336 44.4517L5.03025 44.0768C5.00254 43.9519 4.97484 43.8269 4.94713 43.7019C4.94374 43.5388 4.94036 43.3757 4.93697 43.2125C4.80891 42.487 4.74842 41.9924 4.75549 41.7286C4.76595 41.628 4.81635 41.4857 4.90669 41.3018C4.9901 41.0866 5.01103 40.8853 4.96947 40.6979C4.6578 39.292 4.38783 37.7786 4.15956 36.1576C3.95562 34.4984 3.71343 32.9624 3.43299 31.5496C3.22182 30.4492 3.04351 29.571 2.89807 28.9149C2.75262 28.2588 2.6782 27.8492 2.67481 27.6861C2.61602 27.273 2.51905 26.8357 2.38392 26.374C2.2731 25.8741 2.16921 25.4055 2.07224 24.9681C2.05147 24.8744 2.02199 24.8154 1.98383 24.791L2.98407 23.5368L7.06109 22.633C7.48461 22.4735 7.79357 22.3886 7.98794 22.3783C8.18232 22.368 8.31767 22.3872 8.39401 22.4358L9.5912 22.957C9.94856 23.2384 10.2279 23.3895 10.4292 23.4104C10.6548 23.3932 10.8162 23.3082 10.9135 23.1555C11.0351 22.9647 11.1341 22.7461 11.2106 22.4997C11.2802 22.2221 11.3532 21.96 11.4297 21.7136L13.9445 21.3036L17.9895 22.0293C18.1422 22.1266 18.2792 22.2273 18.4006 22.3315C18.5151 22.4044 18.6262 22.4618 18.7337 22.5035C18.9246 22.625 19.0963 22.7345 19.249 22.8317C19.4329 22.9221 19.5561 22.9603 19.6186 22.9465C19.6811 22.9326 19.9952 22.9449 20.5609 22.9834C21.1579 23.0149 21.7547 23.3415 22.3514 23.9631C22.6951 23.8869 23.063 23.92 23.4551 24.0625C23.8785 24.1981 24.2463 24.3788 24.5586 24.6046C24.8639 24.7991 25.1068 25.0074 25.2871 25.2297C25.4918 25.4137 25.5664 25.5283 25.5108 25.5734C25.0906 26.191 25.0157 26.6665 25.2863 26.9998C25.5881 27.3262 25.9593 27.5225 26.4001 27.5887C26.6428 28.0921 26.9759 28.4116 27.3993 28.5472C27.8157 28.6515 28.128 28.7298 28.3363 28.7819C28.3571 28.8757 28.4956 29.353 28.7521 30.2139C29.0015 31.0435 29.3689 32.2568 29.854 33.8537C30.0965 34.6521 30.3183 35.3568 30.5193 35.9678C30.7134 36.5475 30.8867 37.0335 31.0392 37.4258C31.1571 37.6619 31.2559 37.8858 31.3356 38.0976C31.4084 38.2781 31.4778 38.443 31.5436 38.5923C31.6095 38.7416 31.2758 39.7497 30.5425 41.6166C29.7641 43.4281 29.4338 44.5993 29.5515 45.1304L27.0678 45.681C26.9429 45.7088 26.8005 45.8059 26.6408 45.9724C26.4741 46.1077 26.3109 46.2586 26.1512 46.4251L25.5053 47.0599C25.4185 47.112 25.3282 47.1484 25.2345 47.1691C25.1407 47.1899 25.0349 47.2298 24.9168 47.2887C24.7363 47.3615 24.4933 47.4482 24.1878 47.5487C23.9136 47.6422 23.5959 47.7618 23.2349 47.9074C22.4885 48.2368 21.8532 48.476 21.329 48.6249C20.8048 48.7739 20.364 48.8553 20.0065 48.869C19.8852 48.4698 18.8507 48.8302 16.9029 49.9503C16.4065 50.2243 15.8909 50.4861 15.3563 50.7357C14.8147 50.9541 14.3165 51.1465 13.8618 51.3129C13.5944 51.4377 13.3236 51.5469 13.0494 51.6405C12.8064 51.7271 12.5634 51.8138 12.3204 51.9004L11.2375 51.8947C11.0569 51.9675 10.8799 52.0559 10.7063 52.1599C10.5258 52.2327 10.4043 52.276 10.3418 52.2899C10.2481 52.3107 10.1005 52.3106 9.89924 52.2897C9.72918 52.2618 9.58167 52.2617 9.45671 52.2894C9.39422 52.3033 9.2571 52.3501 9.04534 52.4298C8.85789 52.4714 8.73985 52.5303 8.69122 52.6066L7.0464 51.8405ZM15.7429 48.0442C16.0276 47.85 16.3175 47.6055 16.6127 47.3106C16.9322 46.9775 17.2273 46.8302 17.498 46.8685L18.8102 46.5776C18.8726 46.5637 18.9959 46.4545 19.18 46.2498C19.3571 46.0138 19.4925 45.8855 19.5863 45.8647C19.7112 45.837 19.7876 45.8856 19.8153 46.0106C19.836 46.1043 20.0183 46.1131 20.3619 46.0369C20.4869 46.0092 20.7698 45.8809 21.2107 45.6521C21.6447 45.392 22.0996 45.0781 22.5753 44.7104C23.0822 44.3358 23.478 44.0514 23.7627 43.8572C24.0787 43.656 24.2644 43.5329 24.32 43.4878C24.3374 43.4184 24.3357 43.3368 24.3149 43.2431C24.3254 43.1424 24.348 43.0227 24.3828 42.8839C24.4037 42.6826 24.4177 42.4501 24.4248 42.1863C24.4631 41.9156 24.5223 41.5911 24.6023 41.2128C24.6548 40.4145 24.6985 39.7984 24.7334 39.3646C24.7683 38.9307 24.7685 38.6357 24.7338 38.4795L22.0083 33.2822C21.9598 33.0635 21.9374 32.8882 21.9409 32.7564C21.9063 32.6001 21.8647 32.4127 21.8162 32.194C21.7921 31.9371 21.7575 31.6334 21.7126 31.2828C21.5397 29.9118 21.4689 29.2227 21.5001 29.2158C21.462 29.1915 21.3145 29.0439 21.0578 28.7731C20.8324 28.4953 20.5045 28.1255 20.0744 27.6636C19.6373 27.1705 19.2436 26.6514 18.8933 26.1063C18.5674 25.5231 18.3419 25.2453 18.2169 25.273L13.985 23.7037L10.4703 24.4829C10.5534 24.8578 10.5238 25.0938 10.3814 25.1909C10.2322 25.2568 10.1644 25.321 10.1783 25.3835L10.3653 26.227C10.4207 26.4769 10.4865 26.7737 10.5627 27.1174C10.6389 27.461 10.7098 27.855 10.7756 28.2993L11.4612 31.3922C10.9925 31.7911 10.7684 32.185 10.789 32.5737C10.8514 32.8549 10.8077 33.3235 10.6582 33.9794C10.6095 34.0557 10.6025 34.172 10.6372 34.3282C10.7341 34.7656 10.8034 35.078 10.8449 35.2654C10.9108 35.4147 10.9419 35.7028 10.9382 36.1297C10.8896 36.2061 11.0733 36.7389 11.4893 37.7284C11.9192 38.7802 12.1532 39.3184 12.1913 39.3427C12.1947 39.5058 12.1963 39.7349 12.1962 40.0299C12.2273 40.318 12.2375 40.6599 12.2269 41.0556C12.2163 41.4512 12.2162 41.7463 12.2265 41.9406C12.2368 42.135 12.2489 42.2634 12.2627 42.3259C12.3458 42.7008 12.5416 43.3621 12.85 44.3098C12.9921 44.8028 13.1047 45.2367 13.1878 45.6116C13.2952 45.9483 13.3663 46.1948 13.4009 46.351C13.5188 46.5871 13.621 46.8266 13.7077 47.0696C13.8256 47.3057 13.9469 47.5574 14.0718 47.8247L15.7429 48.0442ZM55.7792 21.9113L56.3433 28.6694L57.0761 31.3094L57.4651 34.1731L57.3647 37.0469L55.5402 41.6797C54.5539 42.8488 53.408 43.742 52.1027 44.3592C50.7973 44.9763 49.3307 45.3834 47.7027 45.5805L45.282 45.0846L44.0167 45.3651C43.5169 45.476 42.5348 45.1857 41.0704 44.4942C40.4492 44.2058 39.9166 43.947 39.4724 43.7177C39.3649 43.676 39.2573 43.6343 39.1497 43.5925C39.0734 43.5439 38.997 43.4953 38.9207 43.4467C38.8653 43.1967 38.7648 42.8912 38.6192 42.5302C38.4736 42.1691 38.276 41.7213 38.0263 41.1867C37.8079 40.6451 37.6173 40.2285 37.4543 39.9369C37.3156 39.607 37.2133 39.3675 37.1475 39.2182C37.1267 39.1245 37.1181 39.0117 37.1216 38.8798C37.1182 38.7167 37.087 38.5761 37.0281 38.458C36.9935 38.3018 36.9189 38.1873 36.8044 38.1143C36.6899 38.0414 36.5077 38.0326 36.2577 38.088L35.8165 35.4325C35.8653 35.0612 35.8759 34.813 35.8482 34.6881C35.8205 34.5631 35.7806 34.4572 35.7286 34.3704C35.6766 34.2836 35.6332 34.1621 35.5986 34.0059C35.564 33.8497 35.5832 33.5668 35.6563 33.1573L35.5062 31.3715C35.8082 31.4028 36.0095 31.2763 36.1103 30.9917C36.2424 30.7002 36.2859 30.3792 36.241 30.0286C36.2203 29.6398 36.132 29.3153 35.9759 29.0549C35.813 28.7632 35.5909 28.6486 35.3097 28.7109C35.1293 28.4887 34.9924 28.2405 34.8988 27.9662C34.7983 27.6607 34.7793 27.501 34.8417 27.4872C34.8002 27.2997 34.7361 27.0845 34.6494 26.8415C34.5628 26.5985 34.4433 26.1333 34.2909 25.446L35.4006 24.0201C35.7824 23.9682 36.2579 23.8955 36.8272 23.8021C37.3896 23.6774 37.9675 23.5493 38.5611 23.4177C39.1859 23.2792 39.783 23.1632 40.3523 23.0698C40.9146 22.9451 41.3745 22.8759 41.7321 22.8622L42.242 23.3883C42.1931 24.0547 42.1998 24.5285 42.2621 24.8097C42.2724 25.004 42.3071 25.1602 42.366 25.2783L42.7502 27.4547C42.698 27.663 42.6666 27.9649 42.656 28.3606C42.6697 28.7181 42.6938 29.1225 42.7283 29.5737C42.7871 29.9868 42.8494 30.4154 42.9151 30.8598C42.9808 31.3041 43.0483 31.6824 43.1176 31.9948C43.0791 32.5606 43.0475 33.1575 43.0229 33.7858C42.9914 34.3827 43.0935 34.9173 43.3293 35.3895C43.4264 35.5318 43.5027 35.728 43.5581 35.9779C43.6378 36.1897 43.8407 36.5872 44.1666 37.1705C44.1457 37.3718 44.1508 37.6165 44.1819 37.9046C44.213 38.1927 44.2631 38.4929 44.3324 38.8053C44.426 39.0796 44.5543 39.3625 44.7173 39.6542C44.9046 39.9076 45.1283 40.1038 45.3886 40.2428L47.481 41.2539L50.3447 40.8649C50.7471 41.2017 51.0733 41.3425 51.3233 41.2871C51.5663 41.2004 51.6966 40.8274 51.7143 40.1679L53.1363 38.8202L53.6797 35.0615L53.2486 32.8954L52.7396 30.5992C53.2674 30.0233 53.5072 29.4785 53.4589 28.9647C53.4105 28.451 52.9509 27.9302 52.08 27.4021L50.7446 22.0442L51.4949 20.9929L54.4054 20.5934L55.7792 21.9113ZM60.6004 23.9399C60.3993 23.624 60.2051 23.1917 60.018 22.6432C59.8239 22.0635 59.6506 21.5775 59.4981 21.1852L60.0145 19.3008C60.556 19.0824 60.9396 18.9646 61.1652 18.9473C61.4221 18.9232 61.6199 18.9285 61.7587 18.9632C61.9393 18.8904 62.1979 18.8003 62.5346 18.6929C62.8957 18.5473 63.4372 18.3289 64.1593 18.0377C64.1041 17.4928 64.0818 16.8749 64.0926 16.1842C64.1033 15.4935 64.0499 14.7351 63.9323 13.909L63.1308 13.3984L62.9281 12.7058L63.1735 11.3731L68.7969 10.1264L70.9265 9.75264C71.2006 9.95409 71.3601 10.2301 71.4051 10.5807C71.4431 10.9 71.4464 11.2107 71.415 11.5126C71.3836 11.8146 71.3419 12.0697 71.2897 12.2779C71.2618 12.448 71.2879 12.4914 71.3677 12.4081L72.0118 15.3135C71.859 15.5113 71.76 15.7299 71.7148 15.9694C71.6626 16.1776 71.633 16.4136 71.6259 16.6774L71.7404 16.7504L74.4376 16.0541C74.5383 16.0645 74.6389 16.075 74.7396 16.0855C74.8402 16.0959 74.9565 16.1029 75.0884 16.1065C75.4841 16.1171 75.9787 16.0566 76.5723 15.925L77.0979 16.3001L77.0811 18.6638C76.8937 18.7053 76.6507 18.792 76.3521 18.9237C76.0466 19.0242 75.729 19.1438 75.3992 19.2825C75.0937 19.383 74.8038 19.48 74.5296 19.5736C74.2866 19.6602 74.1182 19.714 74.0245 19.7347L72.1809 20.7334C72.1322 21.1048 72.1042 21.4224 72.0972 21.6861C72.1144 21.9118 72.1473 22.1339 72.1957 22.3526C72.2373 22.5401 72.2858 22.7587 72.3412 23.0087C72.4209 23.2204 72.4989 23.4981 72.5751 23.8418L73.5664 29.866C73.5905 30.4179 73.6666 30.9091 73.7948 31.3395C73.9542 31.7631 74.1154 32.1206 74.2784 32.4123C74.3755 32.5546 74.4726 32.697 74.5698 32.8394C74.6669 32.9817 74.764 33.1241 74.8611 33.2664L75.553 34.3913L75.7924 34.5841L80.0263 32.1705L81.6667 31.3643L82.9055 32.073L82.1132 33.8219L81.1601 34.6232L80.2644 35.0185L75.4051 38.6032C75.2489 38.6378 75.1204 38.6499 75.0198 38.6394C74.8636 38.6741 74.6761 38.7156 74.4574 38.7641C74.2631 38.7744 74.0375 38.7917 73.7806 38.8158C72.6351 38.9714 71.7985 39.1897 71.2708 39.4706C71.0769 38.5958 70.6016 38.0784 69.8451 37.9184C69.4529 37.7759 69.099 37.6577 68.7831 37.5638C68.4986 37.463 68.2366 37.39 67.9971 37.3447C67.8794 36.8136 67.7997 36.4543 67.7582 36.2669C67.7478 36.0725 67.6612 35.8295 67.4982 35.5379C67.4011 35.3955 67.3093 35.0553 67.2228 34.5173C67.1294 33.948 67.0048 33.2382 66.849 32.3877C66.7175 31.4991 66.5305 30.8031 66.2878 30.2997C66.0381 29.7651 65.7883 29.5254 65.5384 29.5809C65.4796 29.1678 65.4052 28.7582 65.3152 28.352C65.2564 27.939 65.208 27.5728 65.1699 27.2534C65.1665 27.0903 65.1441 26.915 65.1025 26.7276C65.061 26.5401 65.0229 26.3683 64.9882 26.2121C65.023 26.0733 65.0491 25.9691 65.0665 25.8997C65.0769 25.7991 65.0943 25.7297 65.1187 25.6915C65.136 25.6221 65.2593 25.5128 65.4885 25.3637C65.7419 25.1764 65.9191 24.793 66.0201 24.2134C66.6278 23.5542 66.8398 23.0319 66.6561 22.6466C66.4723 22.2612 65.8632 22.1013 64.8289 22.1667C64.6171 22.2464 64.4435 22.3504 64.3081 22.4788C64.197 22.569 64.1726 22.7547 64.2349 23.0358L61.5582 24.2684L60.6004 23.9399ZM105.729 9.8052L109.493 9.70817L109.149 11.702L109.18 11.8426C109.274 12.1169 109.31 13.0922 109.288 14.7686C109.277 14.8693 109.168 15.041 108.96 15.2839C108.782 15.5198 108.565 15.7974 108.308 16.1166C108.083 16.4288 107.86 16.7567 107.642 17.1002C107.416 17.4125 107.284 17.704 107.245 17.9747L102.757 29.8845L101.663 31.6021C101.576 31.6541 101.492 31.7217 101.413 31.805C101.357 31.8501 101.298 31.8796 101.235 31.8934L101.792 32.4091L100.327 36.2246L98.2999 40.6073L97.8152 41.7473L92.2231 42.692L90.8497 40.489L92.3495 39.7141L93.2145 38.2932L93.923 37.497L93.6632 36.3254C93.7744 36.2352 93.8664 36.1329 93.9393 36.0184C94.0505 35.9282 94.1581 35.8224 94.2623 35.7009C94.4151 35.5032 94.5766 35.2707 94.7468 35.0035C94.917 34.7364 95.0612 34.4258 95.1794 34.0718C95.5966 32.701 95.4772 32.0884 94.8211 32.2338C95.0295 31.9909 95.1701 31.8123 95.2431 31.6978C95.4862 31.3161 95.5993 30.8649 95.5822 30.3443C95.4924 29.3481 95.2914 28.7371 94.9792 28.5114C94.816 28.5147 94.3997 28.2629 93.73 27.7558C93.3796 27.5057 93.0864 27.2921 92.8505 27.115C92.6146 26.9379 92.4272 26.8319 92.2884 26.7971C91.9832 26.3076 91.5704 25.7763 91.0501 25.2034C90.561 24.6235 90.025 24.054 89.4422 23.4949C88.8836 22.8976 88.313 22.3194 87.7301 21.7603C87.1473 21.2012 86.6061 20.682 86.1066 20.2028C84.6079 18.7651 83.3709 17.8429 82.3958 17.4364L81.7873 16.2438C82.0721 15.7546 82.4888 15.4164 83.0373 15.2292C83.6483 15.0282 84.0372 14.7125 84.204 14.2822L86.6882 12.8465C87.3198 13.0343 87.9149 13.2793 88.4736 13.5815C89.2612 14.0297 90.023 14.2869 90.7587 14.3532C90.8488 14.7594 91.0534 15.0909 91.3726 15.3479C91.6918 15.6049 92.0388 15.8394 92.4135 16.0513C92.7813 16.232 93.1301 16.4005 93.4597 16.5569C93.8206 16.7063 94.0878 16.8765 94.2612 17.0675C94.2682 17.0987 94.308 17.2046 94.3808 17.3851C94.4779 17.5275 94.5473 17.6924 94.5888 17.8798C94.6616 18.0604 94.6997 18.2322 94.7031 18.3953C94.7308 18.5203 94.6978 18.5932 94.6041 18.6139C94.4479 18.6486 94.4808 18.7232 94.7029 18.8379C94.925 18.9525 95.3293 19.0759 95.9158 19.2081C95.9366 19.3018 96.0371 19.4598 96.2175 19.682C96.4291 19.8973 96.6789 20.137 96.9669 20.4009C97.2548 20.6648 97.5462 20.9444 97.8411 21.2395C98.1291 21.5035 98.3823 21.7587 98.6008 22.0053C99.0899 22.5851 99.4628 23.158 99.7193 23.7239C99.969 24.2586 100.148 24.5467 100.255 24.5884C100.318 24.5746 100.436 24.5156 100.609 24.4116C100.776 24.2763 100.958 24.1376 101.156 23.9954C101.347 23.8219 101.503 23.6398 101.625 23.4489C101.74 23.2269 101.776 23.0221 101.735 22.8346C101.693 22.6472 101.596 22.5048 101.443 22.4076L101.022 22.0585C100.893 21.9231 100.784 21.7998 100.694 21.6887C100.604 21.5776 100.576 21.4526 100.611 21.3138C100.892 20.9565 101.09 20.6667 101.205 20.4447C101.313 20.1913 101.453 19.8652 101.627 19.4661C101.655 19.296 101.742 19.0965 101.888 18.8675C102.058 18.6003 102.231 18.3488 102.409 18.1128C102.617 17.87 102.801 17.6653 102.961 17.4988C103.114 17.301 103.187 17.1865 103.18 17.1553C103.319 16.6 103.414 16.0707 103.467 15.5675C103.512 15.033 103.559 14.285 103.608 13.3236C103.605 13.1605 103.649 12.987 103.739 12.803C103.86 12.6122 103.986 12.437 104.114 12.2774C104.267 12.0796 104.395 11.92 104.5 11.7986C104.628 11.639 104.698 11.5089 104.708 11.4082C104.725 11.3388 104.734 11.3041 104.734 11.3041C104.727 11.2729 104.732 11.2226 104.75 11.1531L105.729 9.8052Z" fill="black"/>
</svg>
